<svg width="11" height="8" viewBox="0 0 11 8" fill="none" xmlns="http://www.w3.org/2000/svg">
<path fill-rule="evenodd" clip-rule="evenodd" d="M9.02519 0.640079L5.48837 5.94531L1.95155 0.640079C1.9051 0.57041 1.84539 0.510571 1.77582 0.463979C1.70625 0.417387 1.62818 0.384954 1.54607 0.368533C1.46397 0.352112 1.37943 0.352025 1.29729 0.368274C1.21515 0.384523 1.13701 0.416792 1.06734 0.463238C0.997675 0.509684 0.937836 0.569398 0.891244 0.63897C0.844652 0.708542 0.81222 0.78661 0.795799 0.868716C0.779378 0.950822 0.779289 1.03536 0.795538 1.1175C0.811788 1.19964 0.844057 1.27777 0.890503 1.34744L4.89985 7.36146C4.96444 7.45833 5.05196 7.53777 5.15462 7.59271C5.25729 7.64765 5.37193 7.67639 5.48837 7.67639C5.60481 7.67639 5.71945 7.64765 5.82212 7.59271C5.92479 7.53777 6.0123 7.45833 6.0769 7.36146L10.0862 1.34744C10.1327 1.27777 10.165 1.19964 10.1812 1.1175C10.1975 1.03536 10.1974 0.950822 10.1809 0.868716C10.1645 0.78661 10.1321 0.708542 10.0855 0.63897C10.0389 0.569398 9.97907 0.509684 9.9094 0.463238C9.83973 0.416792 9.76159 0.384523 9.67945 0.368274C9.59731 0.352025 9.51278 0.352112 9.43067 0.368533C9.34857 0.384954 9.2705 0.417387 9.20093 0.463979C9.13135 0.510571 9.07164 0.57041 9.02519 0.640079V0.640079Z" fill="white"/>
</svg>
