<svg width="10" height="10" viewBox="0 0 10 10" fill="none" xmlns="http://www.w3.org/2000/svg">
<path d="M4.88018 5.0466C5.36027 5.0466 5.82069 4.85588 6.16016 4.51641C6.49963 4.17694 6.69035 3.71652 6.69035 3.23643C6.69035 2.75635 6.49963 2.29593 6.16016 1.95645C5.82069 1.61698 5.36027 1.42627 4.88018 1.42627C4.4001 1.42627 3.93968 1.61698 3.6002 1.95645C3.26073 2.29593 3.07002 2.75635 3.07002 3.23643C3.07002 3.71652 3.26073 4.17694 3.6002 4.51641C3.93968 4.85588 4.4001 5.0466 4.88018 5.0466ZM6.08696 3.23643C6.08696 3.55649 5.95982 3.86344 5.7335 4.08975C5.50719 4.31607 5.20024 4.44321 4.88018 4.44321C4.56013 4.44321 4.25318 4.31607 4.02686 4.08975C3.80055 3.86344 3.67341 3.55649 3.67341 3.23643C3.67341 2.91638 3.80055 2.60943 4.02686 2.38311C4.25318 2.1568 4.56013 2.02966 4.88018 2.02966C5.20024 2.02966 5.50719 2.1568 5.7335 2.38311C5.95982 2.60943 6.08696 2.91638 6.08696 3.23643ZM8.50051 8.06353C8.50051 8.66692 7.89712 8.66692 7.89712 8.66692H1.86324C1.86324 8.66692 1.25986 8.66692 1.25986 8.06353C1.25986 7.46015 1.86324 5.64998 4.88018 5.64998C7.89712 5.64998 8.50051 7.46015 8.50051 8.06353ZM7.89712 8.06112C7.89652 7.91269 7.8042 7.46618 7.3951 7.05708C7.00169 6.66367 6.26134 6.25337 4.88018 6.25337C3.49843 6.25337 2.75867 6.66367 2.36526 7.05708C1.95617 7.46618 1.86445 7.91269 1.86324 8.06112H7.89712Z" fill="#09B451"/>
</svg>
