<svg width="12" height="12" viewBox="0 0 12 12" fill="none" xmlns="http://www.w3.org/2000/svg">
<path d="M4.5 1.5C3.83696 1.5 3.20107 1.76339 2.73223 2.23223C2.26339 2.70107 2 3.33696 2 4C2 4.66304 2.26339 5.29893 2.73223 5.76777C3.20107 6.23661 3.83696 6.5 4.5 6.5C5.16304 6.5 5.79893 6.23661 6.26777 5.76777C6.73661 5.29893 7 4.66304 7 4C7 3.33696 6.73661 2.70107 6.26777 2.23223C5.79893 1.76339 5.16304 1.5 4.5 1.5ZM3 4C3 3.60218 3.15804 3.22064 3.43934 2.93934C3.72064 2.65804 4.10218 2.5 4.5 2.5C4.89782 2.5 5.27936 2.65804 5.56066 2.93934C5.84196 3.22064 6 3.60218 6 4C6 4.39782 5.84196 4.77936 5.56066 5.06066C5.27936 5.34196 4.89782 5.5 4.5 5.5C4.10218 5.5 3.72064 5.34196 3.43934 5.06066C3.15804 4.77936 3 4.39782 3 4ZM8.454 4.109C8.31339 4.03735 8.15781 4 8 4V3C8.31576 3.00002 8.62703 3.07481 8.90834 3.21824C9.18964 3.36167 9.43299 3.56966 9.61847 3.82521C9.80394 4.08076 9.92628 4.37659 9.97546 4.68849C10.0246 5.0004 9.99927 5.31952 9.90142 5.61974C9.80358 5.91996 9.63604 6.19275 9.41251 6.41578C9.18899 6.63881 8.91584 6.80574 8.6154 6.90292C8.31497 7.0001 7.99579 7.02477 7.68399 6.9749C7.37219 6.92503 7.07663 6.80204 6.8215 6.616L7.4105 5.808C7.52201 5.88916 7.64911 5.94637 7.78379 5.97604C7.91848 6.00572 8.05785 6.00721 8.19314 5.98043C8.32844 5.95364 8.45672 5.89917 8.56995 5.82041C8.68317 5.74166 8.77888 5.64034 8.85106 5.52282C8.92324 5.4053 8.97033 5.27412 8.98937 5.13752C9.00841 5.00092 8.99899 4.86186 8.9617 4.72908C8.92441 4.5963 8.86006 4.47267 8.77268 4.36596C8.68531 4.25925 8.57681 4.17176 8.454 4.109ZM9.999 10.5C9.99887 9.96987 9.78822 9.4615 9.41336 9.08664C9.0385 8.71178 8.53013 8.50113 8 8.501V7.5C8.79561 7.50013 9.55859 7.81625 10.1212 8.37883C10.6838 8.94141 10.9999 9.70439 11 10.5H9.999ZM8 10.5H7C7 9.83696 6.73661 9.20107 6.26777 8.73223C5.79893 8.26339 5.16304 8 4.5 8C3.83696 8 3.20107 8.26339 2.73223 8.73223C2.26339 9.20107 2 9.83696 2 10.5H1C1 9.57174 1.36875 8.6815 2.02513 8.02513C2.6815 7.36875 3.57174 7 4.5 7C5.42826 7 6.3185 7.36875 6.97487 8.02513C7.63125 8.6815 8 9.57174 8 10.5Z" fill="#09B451"/>
</svg>
